<?xml version="1.0" encoding="UTF-8"?>
<svg width="155px" height="16px" viewBox="0 0 155 16" version="1.1" xmlns="http://www.w3.org/2000/svg" xmlns:xlink="http://www.w3.org/1999/xlink">
    <!-- Generator: Sketch 40.3 (33839) - http://www.bohemiancoding.com/sketch -->
    <title>ATOMIZER.</title>
    <desc>Created with Sketch.</desc>
    <defs></defs>
    <g id="Page-1" stroke="none" stroke-width="1" fill="none" fill-rule="evenodd">
        <g id="logo" fill="#FFFFFF">
            <path d="M15.32,15 L9.32,0.9 L6.48,0.9 L0.48,15 L3.62,15 L4.9,11.86 L10.82,11.86 L12.1,15 L15.32,15 Z M9.72,9.14 L6,9.14 L7.86,4.6 L9.72,9.14 Z M31.3799999,3.84 L31.3799999,1 L19.7799999,1 L19.7799999,3.84 L24.0399999,3.84 L24.0399999,15 L27.1199999,15 L27.1199999,3.84 L31.3799999,3.84 Z M52.4999998,8 L52.4999998,7.96 C52.4999998,3.98 49.3999998,0.76 45.0799998,0.76 C40.7599998,0.76 37.6199998,4.02 37.6199998,8 L37.6199998,8.04 C37.6199998,12.02 40.7199998,15.24 45.0399998,15.24 C49.3599998,15.24 52.4999998,11.98 52.4999998,8 L52.4999998,8 Z M49.2799998,8.04 C49.2799998,10.44 47.5599998,12.4 45.0799998,12.4 C42.5999998,12.4 40.8399998,10.4 40.8399998,8 L40.8399998,7.96 C40.8399998,5.56 42.5599998,3.6 45.0399998,3.6 C47.5199998,3.6 49.2799998,5.6 49.2799998,8 L49.2799998,8.04 Z M74.3399997,15 L74.3399997,1 L71.0199997,1 L67.3399997,6.92 L63.6599997,1 L60.3399997,1 L60.3399997,15 L63.3599997,15 L63.3599997,5.92 L67.2599997,11.84 L67.3399997,11.84 L71.2799997,5.86 L71.2799997,15 L74.3399997,15 Z M86.0199996,15 L86.0199996,1 L82.9399996,1 L82.9399996,15 L86.0199996,15 Z M105.86,15 L105.86,12.3 L98.1599995,12.3 L105.86,3.34 L105.86,1 L94.4399995,1 L94.4399995,3.7 L101.9,3.7 L94.1999995,12.66 L94.1999995,15 L105.86,15 Z M124.539999,15 L124.539999,12.26 L116.939999,12.26 L116.939999,9.32 L123.539999,9.32 L123.539999,6.58 L116.939999,6.58 L116.939999,3.74 L124.439999,3.74 L124.439999,1 L113.879999,1 L113.879999,15 L124.539999,15 Z M144.479999,15 L141.059999,10 C142.839999,9.34 144.059999,7.92 144.059999,5.66 L144.059999,5.62 C144.059999,2.74 142.079999,1 138.779999,1 L132.379999,1 L132.379999,15 L135.459999,15 L135.459999,10.52 L137.879999,10.52 L140.879999,15 L144.479999,15 Z M140.939999,5.82 C140.939999,7 140.079999,7.8 138.579999,7.8 L135.459999,7.8 L135.459999,3.78 L138.519999,3.78 C140.019999,3.78 140.939999,4.46 140.939999,5.78 L140.939999,5.82 Z M154.739999,15 L154.739999,11.8 L151.499999,11.8 L151.499999,15 L154.739999,15 Z" id="ATOMIZER."></path>
        </g>
    </g>
</svg>